<svg xmlns="http://www.w3.org/2000/svg" version="1.1" xmlns:xlink="http://www.w3.org/1999/xlink" xmlns:svgjs="http://svgjs.dev/svgjs" width="1000" height="267" viewBox="0 0 1000 267"><g transform="matrix(1,0,0,1,-0.6056348047761162,-0.0360401615974979)"><svg viewBox="0 0 396 106" data-background-color="#ffffff" preserveAspectRatio="xMidYMid meet" height="267" width="1000" xmlns="http://www.w3.org/2000/svg" xmlns:xlink="http://www.w3.org/1999/xlink"><g id="tight-bounds" transform="matrix(1,0,0,1,0.24008861730862918,0.014571152043913571)"><svg viewBox="0 0 395.52 105.97073814362271" height="105.97073814362271" width="395.52"><g><svg viewBox="0 0 395.52 105.97073814362271" height="105.97073814362271" width="395.52"><g><svg viewBox="0 0 395.52 105.97073814362271" height="105.97073814362271" width="395.52"><g id="textblocktransform"><svg viewBox="0 0 395.52 105.97073814362271" height="105.97073814362271" width="395.52" id="textblock"><g><svg viewBox="0 0 395.52 105.97073814362271" height="105.97073814362271" width="395.52"><path d="M394.594 22.729C392.735 11.729 387.435 8.671 387.435 8.671 371.165-2.659 350.86-0.217 332.619 1.411 300.414 1.477 268.339 3.897 236.208 5.195 168.767 5.393 100.749 2.137 33.643 10.167 27.339 12.631-6.54 10.651 1.121 24.137 3.129 29.747 10.456 35.972 10.232 41.12 11.236 42.022 12.631 39.954 13.226 41.252 15.309 44.75 18.711 43.1 21.501 45.168 17.614 50.69 20.403 55.288 23.062 60.106 18.377 61.36 12.371 60.766 9.675 64.924 9.396 67.938 7.89 67.366 6.235 67.234 5.026 67.146 2.59 67.476 2.999 68.422 4.394 71.655-1.594 73.525 2.162 76.693-0.422 80.125 3.948 83.095 3.353 86.813 3.278 87.561 3.687 88.199 4.338 88.375 7.22 89.321 3.018 91.169 3.464 93.171 33.029 106.855 65.104 97.395 95.394 103.687 103.259 99.287 97.346 105.249 100.489 104.325 102.943 103.247 104.728 107.713 107.499 105.183 107.927 104.457 107.276 102.741 108.8 103.071 109.6 103.247 110.307 103.203 110.418 102.191 110.586 100.673 109.117 101.619 108.726 100.827 112.947 96.823 111.906 106.349 115.866 105.953 115.68 104.787 114.528 103.115 116.889 103.335 119.232 101.663 119.306 100.277 121.389 104.039 121.463 104.853 121.835 105.425 122.43 105.821 128.938 101.729 135.409 107.273 142.233 105.425 146.417 103.401 150.433 106.525 154.672 105.755 156.16 105.139 157.666 104.039 159.098 105.887 176.632 106.283 195.319 104.633 211.943 105.953 256.364 103.489 303.835 106.965 350.674 103.709 361.719 102.455 373.192 100.673 383.958 99.243 383.958 99.243 392.679 95.327 392.679 77.727S394.538 62.328 394.817 48.314C395.096 34.3 396.398 33.728 394.538 22.729Z" opacity="1" fill="#000000" data-fill-palette-color="tertiary"></path><g transform="matrix(1,0,0,1,55.76832,26.230666666666668)"><svg width="283.98335999999995" viewBox="4.21999979019165 -35.77000045776367 189.80999755859375 35.77000045776367" height="53.509404810289375" data-palette-color="#ffffff"><path d="M8.5 0L4.22 0 6.93-35.77 14.11-35.77 22.95-10.79 24.32-6.13 24.8-6.13 26.15-10.79 35.01-35.77 42.21-35.77 44.92 0 40.21 0 38.31-28.08 38.11-33.2 37.65-33.2 36.23-28.32 26.56-0.73 22.24-0.73 12.48-28.27 11.01-33.2 10.55-33.2 10.4-28.13 8.5 0ZM77.59 0L74.19-9.72 58.76-9.72 55.42 0 50.9 0 64.21-35.77 69.28-35.77 82.61 0 77.59 0ZM60.06-13.45L72.85-13.45 68.11-27.42 66.72-32.4 66.23-32.4 64.84-27.42 60.06-13.45ZM89.86 0L89.86-35.77 101.95-35.77Q106.68-35.77 110.26-34.46 113.84-33.15 116.23-30.91 118.62-28.66 119.83-25.61 121.04-22.56 121.04-19.09L121.04-19.09Q121.04-16.85 120.53-14.56 120.01-12.28 118.95-10.16 117.89-8.03 116.28-6.18 114.67-4.32 112.46-2.95 110.25-1.59 107.43-0.79 104.61 0 101.17 0L101.17 0 89.86 0ZM94.65-31.98L94.65-3.78 102.05-3.78Q105.59-3.78 108.22-4.92 110.86-6.05 112.58-8 114.3-9.94 115.16-12.54 116.01-15.14 116.01-18.09L116.01-18.09Q116.01-21.31 115.02-23.89 114.03-26.46 112.14-28.26 110.25-30.05 107.48-31.02 104.71-31.98 101.17-31.98L101.17-31.98 94.65-31.98ZM129.97 0L129.97-35.77 142.06-35.77Q146.79-35.77 150.37-34.46 153.95-33.15 156.34-30.91 158.73-28.66 159.94-25.61 161.15-22.56 161.15-19.09L161.15-19.09Q161.15-16.85 160.64-14.56 160.12-12.28 159.06-10.16 158-8.03 156.39-6.18 154.78-4.32 152.57-2.95 150.36-1.59 147.54-0.79 144.72 0 141.28 0L141.28 0 129.97 0ZM134.76-31.98L134.76-3.78 142.16-3.78Q145.7-3.78 148.33-4.92 150.97-6.05 152.69-8 154.41-9.94 155.27-12.54 156.12-15.14 156.12-18.09L156.12-18.09Q156.12-21.31 155.13-23.89 154.14-26.46 152.25-28.26 150.36-30.05 147.59-31.02 144.82-31.98 141.28-31.98L141.28-31.98 134.76-31.98ZM194.03-35.77L181.56-15.67 181.56 0 176.77 0 176.77-15.63 164.93-35.77 170.4-35.77 177.26-22.88 179.43-18.09 179.92-18.09 182.24-22.83 189.25-35.77 194.03-35.77Z" opacity="1" transform="matrix(1,0,0,1,0,0)" fill="#ffffff" class="undefined-text-0" data-fill-palette-color="quaternary" id="text-0"></path></svg></g></svg></g></svg></g></svg></g><g></g></svg></g><defs></defs></svg><rect width="395.52" height="105.97073814362271" fill="none" stroke="none" visibility="hidden"></rect></g></svg></g></svg>